<?xml version="1.0" encoding="UTF-8"?>
<svg viewBox="0 0 177 50" xmlns="http://www.w3.org/2000/svg">
<path d="M3.87168 26.7609H10.4051V23.2391H3.87168V19.5217H11.857V16H0V33.6087H3.87168V26.7609Z" fill="#151515"/>
<path d="m13.183 27.005v6.6033h3.6297v-6.6033c0-2.0299 1.6213-3.6684 3.6297-3.6684v-3.3261h-0.484c-4.0168 0-6.7754 3.1304-6.7754 6.9945z" fill="#151515"/>
<path d="m28.557 20.011c-4.0168 0-7.2594 3.1304-7.2594 6.9945 0 3.8642 3.2426 6.9946 7.2594 6.9946 3.1942 0 5.9044-1.981 6.8723-4.7446h-4.0169c-0.6533 0.856-1.6939 1.4185-2.8554 1.4185-1.5728 0-2.8795-1.0027-3.4119-2.3967h10.55c0.0726-0.4158 0.121-0.8315 0.121-1.2718 0-3.8641-3.2426-6.9945-7.2595-6.9945zm-3.4119 5.7228c0.5324-1.394 1.8391-2.3967 3.4119-2.3967 1.5487 0 2.8796 1.0027 3.412 2.3967h-6.8239z" fill="#151515"/>
<path d="m43.745 25.832c-1.4035-0.1712-3.0006-0.7826-3.0006-1.5652 0-0.8804 0.7502-1.1739 1.5487-1.1739s1.5487 0.2935 1.5487 1.4185h3.6297c0-2.837-2.3714-4.5-5.1784-4.5s-5.1784 1.663-5.1784 4.3532c0 2.0788 2.444 3.6441 4.9848 3.962 1.0889 0.1467 1.8875 0.7092 1.8875 1.3206 0 0.856-0.8954 1.2718-1.6939 1.2718s-1.6939-0.2935-1.6939-1.4185h-3.6297c0 2.837 2.5166 4.5 5.3236 4.5s5.3236-1.663 5.3236-4.5c0-2.2255-1.9601-3.4484-3.8717-3.6685z" fill="#151515"/>
<path d="m56.282 20.011c-1.2099 0-2.2988 0.4402-3.1457 1.1739v-5.1848h-3.6297v17.609h3.6297v-6.6277c0-2.0055 1.1373-3.644 3.1457-3.644 2.0085 0 3.1458 1.6385 3.1458 3.6684v6.6033h3.6297v-6.6033c0-3.8641-2.7586-6.9945-6.7755-6.9945z" fill="#151515"/>
<path d="m72.018 20.011c-4.0169 0-6.7755 3.1304-6.7755 6.9945v6.6033h3.6297v-6.6033c0-2.0299 1.1373-3.6684 3.1458-3.6684 2.0084 0 3.1457 1.6385 3.1457 3.6684v6.6033h3.6297v-6.6033c0-3.8641-2.7586-6.9945-6.7754-6.9945z" fill="#151515"/>
<path d="m87.635 20.011c-4.0168 0-7.2594 3.1304-7.2594 6.9945 0 3.8642 3.2426 6.9946 7.2594 6.9946 3.1942 0 5.9044-1.981 6.8723-4.7446h-4.0169c-0.6533 0.856-1.6938 1.4185-2.8554 1.4185-1.5728 0-2.8795-1.0027-3.4119-2.3967h10.55c0.0726-0.4158 0.121-0.8315 0.121-1.2718 0-3.8641-3.2426-6.9945-7.2595-6.9945zm-3.4119 5.7228c0.5324-1.394 1.8391-2.3967 3.4119-2.3967 1.5487 0 2.8796 1.0027 3.412 2.3967h-6.8239z" fill="#151515"/>
<path d="m102.82 25.832c-1.403-0.1712-3.0001-0.7826-3.0001-1.5652 0-0.8804 0.7501-1.1739 1.5491-1.1739 0.798 0 1.548 0.2935 1.548 1.4185h3.63c0-2.837-2.371-4.5-5.178-4.5-2.8074 0-5.1788 1.663-5.1788 4.3532 0 2.0788 2.444 3.6441 4.9848 3.962 1.089 0.1467 1.887 0.7092 1.887 1.3206 0 0.856-0.895 1.2718-1.693 1.2718-0.799 0-1.6942-0.2935-1.6942-1.4185h-3.6298c0 2.837 2.5166 4.5 5.324 4.5 2.807 0 5.323-1.663 5.323-4.5 0-2.2255-1.96-3.4484-3.872-3.6685z" fill="#151515"/>
<path d="m115.12 20.011c-4.017 0-7.259 3.1304-7.259 6.9945 0 3.8642 3.242 6.9946 7.259 6.9946 3.194 0 5.905-1.981 6.873-4.7446h-4.017c-0.654 0.856-1.694 1.4185-2.856 1.4185-1.573 0-2.879-1.0027-3.412-2.3967h10.551c0.072-0.4158 0.121-0.8315 0.121-1.2718 0-3.8641-3.243-6.9945-7.26-6.9945zm-3.412 5.7228c0.533-1.394 1.839-2.3967 3.412-2.3967 1.549 0 2.88 1.0027 3.412 2.3967h-6.824z" fill="#151515"/>
<path d="m130.6 23.337c1.403 0 2.589 0.7826 3.218 1.9565h3.823c-0.798-3.0326-3.654-5.2826-7.041-5.2826-4.017 0-7.26 3.1304-7.26 6.9945 0 3.8642 3.243 6.9946 7.26 6.9946 3.363 0 6.17-2.2011 6.993-5.1848h-3.896c-0.605 1.1006-1.742 1.8587-3.097 1.8587-2.009 0-3.63-1.6386-3.63-3.6685s1.621-3.6684 3.63-3.6684z" fill="#151515"/>
<path d="m152.93 27.005c0-3.8641-3.218-6.9945-7.211-6.9945-3.992 0-7.211 3.1304-7.211 6.9945 0 3.8642 3.219 6.9946 7.211 6.9946 3.993 0 7.211-3.1304 7.211-6.9946zm-3.629 0c0 2.0299-1.598 3.6685-3.582 3.6685s-3.581-1.6386-3.581-3.6685 1.597-3.6684 3.581-3.6684 3.582 1.6385 3.582 3.6684z" fill="#151515"/>
<path d="m170.47 20.011c-1.888 0-3.582 0.8559-4.719 2.2255-1.137-1.3696-2.831-2.2255-4.719-2.2255-4.017 0-6.533 3.1304-6.533 6.9945v6.6033h3.63v-6.6033c0-2.0299 0.895-3.6684 2.903-3.6684 2.009 0 2.904 1.6385 2.904 3.6684v6.6033h3.63v-6.6033c0-2.0299 0.895-3.6684 2.904-3.6684 2.008 0 2.903 1.6385 2.903 3.6684v6.6033h3.63v-6.6033c0-3.8641-2.517-6.9945-6.533-6.9945z" fill="#151515"/>
</svg>
